<?xml version="1.0" encoding="iso-8859-1"?><!-- Uploaded to: SVG Repo, www.svgrepo.com, Generator: SVG Repo Mixer Tools --><svg height="800px" width="800px" version="1.1" id="Layer_1" xmlns="http://www.w3.org/2000/svg" xmlns:xlink="http://www.w3.org/1999/xlink" viewBox="0 0 512 512" xml:space="preserve"><path style="fill:#18BDF6;" d="M493.714,256h-74.357c-9.429,0-17.072-7.643-17.072-17.072v-4.257c0-5.862,3.169-11.072,7.966-14.441 c13.779-9.678,21.983-26.742,18.765-45.471c-3.093-18.001-17.281-32.851-35.16-36.585c-29.552-6.171-55.57,16.218-55.57,44.683 c0,15.587,7.819,29.322,19.737,37.563c4.713,3.259,7.691,8.457,7.691,14.187v4.32c0,9.429-7.643,17.072-17.072,17.072h-74.357 C264.186,256,256,264.186,256,274.286v74.357c0,9.429,7.643,17.072,17.072,17.072h4.257c5.862,0,11.072-3.169,14.441-7.966 c9.678-13.779,26.742-21.983,45.471-18.765c18.001,3.093,32.851,17.281,36.585,35.16c6.171,29.552-16.218,55.57-44.683,55.57 c-15.587,0-29.322-7.819-37.563-19.737c-3.259-4.713-8.457-7.691-14.187-7.691h-4.32c-9.429,0-17.072,7.643-17.072,17.072v74.357 c0,10.099,8.186,18.286,18.286,18.286h219.429c10.099,0,18.286-8.186,18.286-18.286V274.286C512,264.186,503.814,256,493.714,256z"/><path style="fill:#FF6464;" d="M174.76,82.983c18.729-3.217,35.792,4.986,45.47,18.766c3.369,4.797,8.565,7.966,14.427,7.966h3.731 c9.963,0,17.611-7.643,17.611-17.072V18.286C256,8.186,247.814,0,237.714,0H18.286C8.186,0,0,8.186,0,18.286v219.429 C0,247.814,8.186,256,18.286,256h74.357c9.429,0,17.072,7.643,17.072,17.072v4.258c0,5.862-3.169,11.072-7.966,14.44 c-13.779,9.678-21.983,26.741-18.766,45.47c3.093,18.001,17.28,32.851,35.16,36.586c29.553,6.171,55.571-16.217,55.571-44.683 c0-15.587-7.819-29.322-19.737-37.563c-4.713-3.259-7.691-8.457-7.691-14.186v-4.32c0-9.429,7.643-17.072,17.072-17.072h74.357 c10.099,0,18.286-8.186,18.286-18.286v-74.357c0-9.429-7.643-17.072-17.072-17.072h-4.32c-5.73,0-10.928,2.978-14.186,7.691 c-8.242,11.917-21.977,19.736-37.565,19.736c-28.466,0-50.855-26.018-44.683-55.571C141.907,100.263,156.758,86.075,174.76,82.983z"/><path style="fill:#FFD782;" d="M493.714,0H274.286C264.186,0,256,8.186,256,18.286v74.357c0,9.429-7.643,17.072-17.072,17.072 h-4.257c-5.862,0-11.072-3.169-14.441-7.966c-9.678-13.779-26.742-21.983-45.472-18.766c-18.001,3.093-32.851,17.281-36.585,35.16 c-6.17,29.553,16.218,55.571,44.685,55.571c15.587,0,29.322-7.819,37.565-19.737c3.259-4.713,8.457-7.691,14.186-7.691h4.32 c9.429,0,17.072,7.643,17.072,17.072v74.357c0,10.099,8.186,18.286,18.286,18.286h74.357c9.429,0,17.072-7.643,17.072-17.072v-4.257 c0-5.862-3.169-11.072-7.966-14.441c-13.779-9.678-21.983-26.742-18.766-45.472c3.093-18.001,17.281-32.851,35.16-36.585 c29.553-6.17,55.571,16.218,55.571,44.685c0,15.587-7.819,29.322-19.737,37.565c-4.713,3.259-7.691,8.457-7.691,14.186v4.32 c0,9.429,7.643,17.072,17.072,17.072h74.357c10.099,0,18.286-8.186,18.286-18.286V18.286C512,8.186,503.814,0,493.714,0z"/><path style="fill:#A5EB78;" d="M337.24,338.983c-18.729-3.217-35.792,4.986-45.47,18.766c-3.369,4.797-8.578,7.966-14.441,7.966 h-4.257c-9.429,0-17.072-7.643-17.072-17.072v-74.357c0-10.099-8.186-18.286-18.286-18.286h-74.357 c-9.429,0-17.072,7.643-17.072,17.072v4.257c0,5.862,3.169,11.072,7.966,14.441c13.779,9.678,21.983,26.741,18.766,45.47 c-3.093,18.001-17.28,32.851-35.16,36.586c-29.553,6.173-55.571-16.217-55.571-44.683c0-15.587,7.819-29.322,19.737-37.565 c4.713-3.258,7.691-8.456,7.691-14.186v-4.32c0-9.429-7.643-17.072-17.072-17.072H18.286C8.186,256,0,264.186,0,274.286v219.429 C0,503.814,8.186,512,18.286,512h219.429c10.099,0,18.286-8.186,18.286-18.286v-74.357c0-9.429,7.643-17.072,17.072-17.072h4.32 c5.729,0,10.927,2.978,14.186,7.691c8.242,11.918,21.977,19.737,37.565,19.737c28.466,0,50.856-26.018,44.683-55.571 C370.093,356.263,355.242,342.075,337.24,338.983z"/><g><path style="fill:#FFC36E;" d="M156.459,118.143c3.647-17.469,17.931-31.337,35.374-34.855c-5.417-1.087-11.142-1.326-17.074-0.306 c-18.001,3.094-32.851,17.281-36.585,35.161c-6.171,29.553,16.217,55.571,44.683,55.571c3.11,0,6.118-0.391,9.05-0.984 C168.062,167.829,150.975,144.405,156.459,118.143z"/><path style="fill:#FFC36E;" d="M252.957,109.714h4.257c9.429,0,17.072-7.643,17.072-17.072V18.286 C274.286,8.186,282.473,0,292.571,0h-18.286C264.187,0,256,8.186,256,18.286v74.357c0,6.849-4.058,12.714-9.88,15.434 C248.245,109.059,250.521,109.714,252.957,109.714z"/><path style="fill:#FFC36E;" d="M274.286,237.714v-74.357c0-9.429-7.643-17.072-17.072-17.072h-4.32 c-2.424,0-4.709,0.632-6.835,1.605c5.856,2.706,9.943,8.593,9.943,15.469v74.355c0,10.098,8.187,18.286,18.286,18.286h18.286 C282.473,256,274.286,247.813,274.286,237.714z"/></g><g><path style="fill:#D2555A;" d="M136.429,373.826c-17.88-3.734-32.067-18.584-35.16-36.586c-3.217-18.729,4.986-35.792,18.766-45.47 c4.797-3.369,7.966-8.578,7.966-14.441v-4.258c0-9.429-7.643-17.072-17.072-17.072H92.642c9.429,0.001,17.072,7.645,17.072,17.073 v4.258c0,5.862-3.169,11.072-7.966,14.441c-13.779,9.678-21.983,26.741-18.766,45.47c3.093,18.001,17.281,32.853,35.16,36.586 c6.534,1.365,12.87,1.264,18.815,0.08C136.781,373.871,136.607,373.863,136.429,373.826z"/> <path style="fill:#D2555A;" d="M18.286,237.714V18.286C18.286,8.186,26.473,0,36.571,0H18.286C8.187,0,0,8.186,0,18.286v219.429 C0,247.813,8.187,256,18.286,256h18.286C26.473,256,18.286,247.813,18.286,237.714z"/></g><path style="fill:#8CD76E;" d="M18.286,493.714V274.286c0-10.099,8.187-18.286,18.286-18.286H18.286C8.187,256,0,264.186,0,274.286 v219.429C0,503.813,8.187,512,18.286,512h18.286C26.473,512,18.286,503.813,18.286,493.714z"/><g> <path style="fill:#23A0EB;" d="M358.023,220.421c4.713,3.259,7.691,8.456,7.691,14.187v4.32c0,9.429-7.643,17.072-17.072,17.072 h18.286c9.429,0,17.072-7.643,17.072-17.072v-4.32c0-5.73-2.978-10.928-7.691-14.187c-11.918-8.241-19.737-21.976-19.737-37.563 c0-22.173,15.81-40.59,36.757-44.763c-29.331-5.794-55.042,16.469-55.042,44.763C338.286,198.445,346.105,212.179,358.023,220.421z "/> <path style="fill:#23A0EB;" d="M273.072,365.714h4.257c2.435,0,4.712-0.655,6.837-1.639c-5.822-2.72-9.881-8.585-9.881-15.434 v-74.355c0-10.099,8.187-18.286,18.286-18.286h-18.286c-10.098,0-18.286,8.186-18.286,18.286v74.357 C256,358.071,263.643,365.714,273.072,365.714z"/> <path style="fill:#23A0EB;" d="M274.286,493.714v-74.357c0-6.875,4.087-12.762,9.943-15.469c-2.127-0.973-4.413-1.605-6.837-1.605 h-4.32c-9.429,0-17.072,7.643-17.072,17.072v74.358c0,10.098,8.187,18.286,18.286,18.286h18.286 C282.473,512,274.286,503.813,274.286,493.714z"/></g><g> <path style="fill:#8CD76E;" d="M338.451,339.289c-0.41-0.082-0.798-0.235-1.211-0.306c-18.729-3.217-35.792,4.986-45.471,18.766 c-3.369,4.797-8.578,7.966-14.44,7.966h18.286c5.862,0,11.072-3.169,14.441-7.966C316.669,348.334,326.768,341.633,338.451,339.289 L338.451,339.289z"/> <path style="fill:#8CD76E;" d="M309.864,409.976c-3.258-4.713-8.456-7.69-14.186-7.69h-18.286c5.73,0,10.928,2.978,14.186,7.69 c8.242,11.919,21.977,19.738,37.565,19.738c3.169,0,6.247-0.37,9.235-0.984l0,0C326.608,426.351,316.462,419.517,309.864,409.976z" /></g></svg>
