<?xml version="1.0" encoding="iso-8859-1"?><!-- Uploaded to: SVG Repo, www.svgrepo.com, Generator: SVG Repo Mixer Tools --><svg height="800px" width="800px" version="1.1" id="Layer_1" xmlns="http://www.w3.org/2000/svg" xmlns:xlink="http://www.w3.org/1999/xlink" viewBox="0 0 512 512" xml:space="preserve"><g><polygon style="fill:#E6EEF4;" points="251.259,180.148 4.741,85.333 4.741,407.704 251.259,512 "/><polygon style="fill:#DAE1E5;" points="507.259,94.815 250.785,180.148 251.259,512 507.259,417.185 "/><polygon style="fill:#ECFAFF;" points="507.259,94.815 251.259,180.148 4.741,85.333 251.259,0 "/><g><path d="M476.787,174.394c0,12.535-8.04,22.689-17.948,22.689c-9.918,0-17.948-10.155-17.948-22.689c0-12.535,8.031-22.689,17.948-22.689C468.746,151.705,476.787,161.859,476.787,174.394"/><path d="M402.963,288.172c0,12.534-8.04,22.689-17.948,22.689c-9.918,0-17.948-10.155-17.948-22.689c0-12.535,8.031-22.689,17.948-22.689C394.923,265.482,402.963,275.637,402.963,288.172"/><path d="M334.564,413.458c0,12.535-8.04,22.689-17.948,22.689c-9.918,0-17.948-10.155-17.948-22.689c0-12.535,8.031-22.689,17.948-22.689C326.524,390.769,334.564,400.923,334.564,413.458"/><path d="M206.747,222.296c0,12.535-8.04,22.689-17.948,22.689c-9.918,0-17.948-10.155-17.948-22.689c0-12.535,8.031-22.689,17.948-22.689C198.706,199.607,206.747,209.762,206.747,222.296"/><path d="M70.293,165.468c0,12.535-8.04,22.689-17.948,22.689c-9.918,0-17.948-10.155-17.948-22.689c0-12.535,8.031-22.689,17.948-22.689C62.253,142.779,70.293,152.933,70.293,165.468"/><path d="M203.852,420.912c0,12.535-8.04,22.689-17.948,22.689c-9.918,0-17.948-10.155-17.948-22.689s8.031-22.689,17.948-22.689C195.812,398.223,203.852,408.378,203.852,420.912"/><path d="M69.656,366.051c0,12.535-8.04,22.689-17.948,22.689c-9.918,0-17.948-10.155-17.948-22.689c0-12.535,8.031-22.689,17.948-22.689C61.615,343.361,69.656,353.516,69.656,366.051"/><path d="M251.328,70.738c12.535,0,22.689,8.04,22.689,17.948c0,9.918-10.155,17.948-22.689,17.948c-12.535,0-22.689-8.031-22.689-17.948C228.639,78.778,238.794,70.738,251.328,70.738"/></g></g></svg>